<svg width="17" height="16" viewBox="0 0 17 16" fill="none" xmlns="http://www.w3.org/2000/svg">
<path d="M14.75 9.5V13C14.75 13.3315 14.6183 13.6495 14.3839 13.8839C14.1495 14.1183 13.8315 14.25 13.5 14.25H3.5C3.16848 14.25 2.85054 14.1183 2.61612 13.8839C2.3817 13.6495 2.25 13.3315 2.25 13V9.5C2.25 9.30109 2.32902 9.11032 2.46967 8.96967C2.61032 8.82902 2.80109 8.75 3 8.75C3.19891 8.75 3.38968 8.82902 3.53033 8.96967C3.67098 9.11032 3.75 9.30109 3.75 9.5V12.75H13.25V9.5C13.25 9.30109 13.329 9.11032 13.4697 8.96967C13.6103 8.82902 13.8011 8.75 14 8.75C14.1989 8.75 14.3897 8.82902 14.5303 8.96967C14.671 9.11032 14.75 9.30109 14.75 9.5ZM7.96938 10.0306C8.03905 10.1005 8.12185 10.156 8.21301 10.1939C8.30417 10.2317 8.40191 10.2512 8.50062 10.2512C8.59934 10.2512 8.69707 10.2317 8.78824 10.1939C8.8794 10.156 8.9622 10.1005 9.03187 10.0306L11.5319 7.53062C11.6728 7.38973 11.7519 7.19863 11.7519 6.99937C11.7519 6.80012 11.6728 6.60902 11.5319 6.46812C11.391 6.32723 11.1999 6.24807 11.0006 6.24807C10.8014 6.24807 10.6103 6.32723 10.4694 6.46812L9.25 7.6875V2.5C9.25 2.30109 9.17098 2.11032 9.03033 1.96967C8.88968 1.82902 8.69891 1.75 8.5 1.75C8.30109 1.75 8.11032 1.82902 7.96967 1.96967C7.82902 2.11032 7.75 2.30109 7.75 2.5V7.6875L6.53062 6.46938C6.38973 6.32848 6.19863 6.24932 5.99937 6.24932C5.80012 6.24932 5.60902 6.32848 5.46812 6.46938C5.32723 6.61027 5.24807 6.80137 5.24807 7.00063C5.24807 7.19988 5.32723 7.39098 5.46812 7.53188L7.96938 10.0306Z" fill="white"/>
</svg>
