<svg width="33" height="32" viewBox="0 0 33 32" fill="none" xmlns="http://www.w3.org/2000/svg">
<path d="M29.6665 15H27.6203C27.5078 13.75 27.1805 12.5287 26.6528 11.39L28.4253 10.3663C28.655 10.2336 28.8227 10.0152 28.8913 9.75898C28.96 9.50276 28.9241 9.22974 28.7915 9C28.6589 8.77026 28.4405 8.6026 28.1842 8.53392C27.928 8.46523 27.655 8.50114 27.4253 8.63375L25.6503 9.65875C24.9251 8.63487 24.0316 7.74137 23.0078 7.01625L24.0328 5.24125C24.1654 5.01151 24.2013 4.73849 24.1326 4.48227C24.0639 4.22605 23.8962 4.00761 23.6665 3.875C23.4368 3.74239 23.1637 3.70648 22.9075 3.77517C22.6513 3.84385 22.4329 4.01151 22.3003 4.24125L21.2765 6.01375C20.1378 5.48598 18.9165 5.15868 17.6665 5.04625V3C17.6665 2.73478 17.5611 2.48043 17.3736 2.29289C17.1861 2.10536 16.9317 2 16.6665 2C16.4013 2 16.1469 2.10536 15.9594 2.29289C15.7719 2.48043 15.6665 2.73478 15.6665 3V5.04625C14.4165 5.15868 13.1952 5.48598 12.0565 6.01375L11.0328 4.24125C10.9671 4.12749 10.8797 4.02778 10.7755 3.94781C10.6713 3.86784 10.5524 3.80917 10.4255 3.77517C10.2986 3.74116 10.1663 3.73247 10.0361 3.7496C9.90584 3.76673 9.78026 3.80934 9.6665 3.875C9.43676 4.00761 9.2691 4.22605 9.20042 4.48227C9.13173 4.73849 9.16765 5.01151 9.30025 5.24125L10.3253 7.01625C9.30138 7.74137 8.40788 8.63487 7.68275 9.65875L5.90775 8.63375C5.67801 8.50114 5.405 8.46523 5.14878 8.53392C4.89255 8.6026 4.67411 8.77026 4.5415 9C4.4089 9.22974 4.37298 9.50276 4.44167 9.75898C4.51035 10.0152 4.67801 10.2336 4.90775 10.3663L6.68025 11.39C6.15249 12.5287 5.82518 13.75 5.71275 15H3.6665C3.40129 15 3.14693 15.1054 2.9594 15.2929C2.77186 15.4804 2.6665 15.7348 2.6665 16C2.6665 16.2652 2.77186 16.5196 2.9594 16.7071C3.14693 16.8946 3.40129 17 3.6665 17H5.71275C5.82518 18.25 6.15249 19.4713 6.68025 20.61L4.90775 21.6338C4.717 21.7438 4.56789 21.9137 4.48358 22.1171C4.39926 22.3205 4.38444 22.5461 4.44143 22.7588C4.49842 22.9715 4.62402 23.1594 4.79875 23.2935C4.97347 23.4275 5.18755 23.5001 5.40775 23.5C5.58333 23.5005 5.7559 23.4544 5.90775 23.3662L7.68275 22.3412C8.40788 23.3651 9.30138 24.2586 10.3253 24.9837L9.30025 26.7588C9.16765 26.9885 9.13173 27.2615 9.20042 27.5177C9.2691 27.7739 9.43676 27.9924 9.6665 28.125C9.89625 28.2576 10.1693 28.2935 10.4255 28.2248C10.6817 28.1561 10.9001 27.9885 11.0328 27.7588L12.0565 25.9862C13.1952 26.514 14.4165 26.8413 15.6665 26.9538V29C15.6665 29.2652 15.7719 29.5196 15.9594 29.7071C16.1469 29.8946 16.4013 30 16.6665 30C16.9317 30 17.1861 29.8946 17.3736 29.7071C17.5611 29.5196 17.6665 29.2652 17.6665 29V26.9538C18.9165 26.8413 20.1378 26.514 21.2765 25.9862L22.3003 27.7588C22.4329 27.9885 22.6513 28.1561 22.9075 28.2248C23.1637 28.2935 23.4368 28.2576 23.6665 28.125C23.8962 27.9924 24.0639 27.774 24.1326 27.5177C24.2013 27.2615 24.1654 26.9885 24.0328 26.7588L23.0078 24.9837C24.0316 24.2586 24.9251 23.3651 25.6503 22.3412L27.4253 23.3662C27.539 23.4319 27.6646 23.4746 27.7948 23.4917C27.925 23.5089 28.0574 23.5002 28.1843 23.4662C28.3111 23.4321 28.4301 23.3735 28.5343 23.2935C28.6384 23.2135 28.7259 23.1138 28.7915 23C28.9243 22.7704 28.9604 22.4975 28.892 22.2413C28.8235 21.9851 28.6561 21.7665 28.4265 21.6338L26.654 20.61C27.1813 19.4712 27.5082 18.25 27.6203 17H29.6665C29.9317 17 30.1861 16.8946 30.3736 16.7071C30.5611 16.5196 30.6665 16.2652 30.6665 16C30.6665 15.7348 30.5611 15.4804 30.3736 15.2929C30.1861 15.1054 29.9317 15 29.6665 15ZM16.6665 7C18.8794 7.00263 21.0139 7.81952 22.6631 9.29493C24.3123 10.7703 25.3609 12.8011 25.609 15H17.244L13.0615 7.75625C14.1977 7.25687 15.4254 6.99933 16.6665 7ZM7.6665 16C7.66727 14.5902 7.99922 13.2003 8.6356 11.9423C9.27198 10.6843 10.195 9.59339 11.3303 8.7575L15.5115 16L11.3303 23.2425C10.195 22.4066 9.27198 21.3157 8.6356 20.0577C7.99922 18.7997 7.66727 17.4098 7.6665 16ZM16.6665 25C15.4258 25.0026 14.1982 24.7472 13.0615 24.25L17.244 17H25.609C25.3609 19.1989 24.3123 21.2297 22.6631 22.7051C21.0139 24.1805 18.8794 24.9974 16.6665 25Z" fill="#2B3990"/>
</svg>
