<svg width="33" height="32" viewBox="0 0 33 32" fill="none" xmlns="http://www.w3.org/2000/svg">
<path d="M24.041 8.29247C24.1339 8.38534 24.2077 8.49563 24.258 8.61703C24.3084 8.73843 24.3343 8.86855 24.3343 8.99997C24.3343 9.13139 24.3084 9.26151 24.258 9.38291C24.2077 9.50431 24.1339 9.6146 24.041 9.70747L22.041 11.7075C21.8533 11.8951 21.5988 12.0005 21.3335 12.0005C21.0681 12.0005 20.8136 11.8951 20.626 11.7075C20.4383 11.5198 20.3329 11.2653 20.3329 11C20.3329 10.7346 20.4383 10.4801 20.626 10.2925L22.626 8.29247C22.7188 8.19949 22.8291 8.12573 22.9505 8.07541C23.0719 8.02509 23.2021 7.99918 23.3335 7.99918C23.4649 7.99918 23.595 8.02509 23.7164 8.07541C23.8378 8.12573 23.9481 8.19949 24.041 8.29247ZM28.3335 8.99997C28.3353 9.65682 28.2068 10.3075 27.9553 10.9143C27.7038 11.5211 27.3344 12.072 26.8685 12.535L23.8685 15.535C23.7224 15.6812 23.5346 15.7786 23.331 15.8137C16.8947 16.9187 6.14847 27.5987 6.04097 27.7075C5.85333 27.8949 5.5989 28.0002 5.33366 28.0001C5.06841 28 4.81407 27.8945 4.6266 27.7068C4.43912 27.5192 4.33387 27.2648 4.33398 26.9995C4.3341 26.7343 4.43958 26.4799 4.62722 26.2925C4.83347 26.0912 15.4197 15.41 16.5197 8.99997C16.5549 8.7963 16.6522 8.60853 16.7985 8.46247L19.7985 5.46247C20.4979 4.76327 21.3889 4.28719 22.3589 4.09443C23.3289 3.90167 24.3343 4.0009 25.2479 4.37956C26.1615 4.75822 26.9423 5.3993 27.4915 6.22174C28.0408 7.04417 28.3338 8.01101 28.3335 8.99997ZM26.3335 8.99997C26.3349 8.40555 26.1598 7.8241 25.8302 7.3294C25.5007 6.8347 25.0316 6.44904 24.4825 6.22137C23.9334 5.9937 23.3291 5.93428 22.7462 6.05064C22.1633 6.16701 21.6281 6.45392 21.2085 6.87497L18.4297 9.66122C17.8785 12.305 16.0672 15.435 13.9935 18.34C16.8985 16.2662 20.0285 14.455 22.6722 13.9037L25.4585 11.125C25.7377 10.8463 25.9588 10.5149 26.109 10.1502C26.2592 9.7854 26.3355 9.39445 26.3335 8.99997Z" fill="#2B3990"/>
</svg>
