<svg width="33" height="32" viewBox="0 0 33 32" fill="none" xmlns="http://www.w3.org/2000/svg">
<path d="M28.6265 8.26877L17.6265 2.25002C17.3326 2.08763 17.0023 2.00244 16.6665 2.00244C16.3307 2.00244 16.0004 2.08763 15.7065 2.25002L4.7065 8.27127C4.39236 8.44315 4.13013 8.69622 3.94719 9.00405C3.76425 9.31189 3.66732 9.66319 3.6665 10.0213V21.9763C3.66732 22.3344 3.76425 22.6857 3.94719 22.9935C4.13013 23.3013 4.39236 23.5544 4.7065 23.7263L15.7065 29.7475C16.0004 29.9099 16.3307 29.9951 16.6665 29.9951C17.0023 29.9951 17.3326 29.9099 17.6265 29.7475L28.6265 23.7263C28.9406 23.5544 29.2029 23.3013 29.3858 22.9935C29.5688 22.6857 29.6657 22.3344 29.6665 21.9763V10.0225C29.6664 9.6638 29.5697 9.31172 29.3868 9.00317C29.2038 8.69462 28.9412 8.44096 28.6265 8.26877ZM16.6665 4.00002L26.709 9.50002L22.9878 11.5375L12.944 6.03752L16.6665 4.00002ZM16.6665 15L6.624 9.50002L10.8615 7.18002L20.904 12.68L16.6665 15ZM5.6665 11.25L15.6665 16.7225V27.4463L5.6665 21.9775V11.25ZM27.6665 21.9725L17.6665 27.4463V16.7275L21.6665 14.5388V19C21.6665 19.2652 21.7719 19.5196 21.9594 19.7071C22.1469 19.8947 22.4013 20 22.6665 20C22.9317 20 23.1861 19.8947 23.3736 19.7071C23.5611 19.5196 23.6665 19.2652 23.6665 19V13.4438L27.6665 11.25V21.9713V21.9725Z" fill="#2B3990"/>
</svg>
