<svg width="20" height="21" viewBox="0 0 20 21" fill="none" xmlns="http://www.w3.org/2000/svg">
<path d="M11.5945 3.04943C11.6588 2.80932 11.8158 2.60456 12.031 2.48018C12.2463 2.3558 12.5021 2.32198 12.7422 2.38615C13.9542 2.7019 15.0601 3.33526 15.9457 4.2209C16.8314 5.10654 17.4647 6.2124 17.7805 7.42443C17.8152 7.54425 17.8257 7.6698 17.8113 7.79371C17.7968 7.91763 17.7578 8.03742 17.6965 8.14607C17.6352 8.25472 17.5529 8.35004 17.4543 8.42646C17.3557 8.50287 17.2428 8.55883 17.1223 8.59106C17.0018 8.6233 16.876 8.63115 16.7524 8.61418C16.6288 8.5972 16.5099 8.55572 16.4025 8.49218C16.2952 8.42864 16.2016 8.34432 16.1272 8.24414C16.0529 8.14397 15.9993 8.02997 15.9695 7.90881C15.7367 7.01601 15.27 6.20143 14.6176 5.54901C13.9652 4.89658 13.1506 4.42992 12.2578 4.19709C12.0177 4.13281 11.8129 3.9758 11.6886 3.76059C11.5642 3.54538 11.5304 3.28958 11.5945 3.04943ZM18.4258 13.8838C18.2768 15.0179 17.7201 16.059 16.8597 16.8126C15.9992 17.5662 14.8938 17.9809 13.75 17.9791C7.37423 17.9791 2.18751 12.7924 2.18751 6.41662C2.18573 5.27279 2.60039 4.16743 3.35402 3.30698C4.10765 2.44652 5.14873 1.88982 6.28282 1.74084C6.61697 1.70024 6.95532 1.76835 7.24773 1.9351C7.54013 2.10185 7.77105 2.35836 7.90626 2.66662L9.55547 6.34865C9.55723 6.35348 9.55932 6.35818 9.56172 6.36272C9.66308 6.59961 9.70428 6.85789 9.68165 7.11455C9.65902 7.37122 9.57327 7.61831 9.43204 7.83381C9.41194 7.86521 9.38975 7.89522 9.36563 7.92365L7.87657 9.69787C8.42813 10.701 9.47813 11.7416 10.493 12.2924L12.2359 10.808C12.2639 10.7846 12.2931 10.7627 12.3234 10.7424C12.5397 10.5973 12.7889 10.5088 13.0483 10.4851C13.3076 10.4613 13.5688 10.503 13.8078 10.6065L13.8219 10.6127L17.5 12.2604C17.8082 12.3957 18.0646 12.6266 18.2314 12.919C18.3981 13.2114 18.4663 13.5497 18.4258 13.8838ZM16.5266 13.8791L13.2453 12.4096L11.493 13.8994C11.4654 13.9233 11.4365 13.9455 11.4063 13.9658C11.181 14.1152 10.9209 14.2036 10.6512 14.2223C10.3816 14.2411 10.1117 14.1896 9.86797 14.0729C8.3461 13.3385 6.82969 11.8322 6.09376 10.3229C5.97672 10.0802 5.92443 9.81138 5.94195 9.54253C5.95947 9.27368 6.04622 9.01393 6.19376 8.7885C6.21412 8.75709 6.23657 8.72707 6.26094 8.69865L7.75782 6.92365L6.28751 3.6424C5.65579 3.78162 5.09068 4.13266 4.68596 4.63729C4.28124 5.14191 4.06125 5.76975 4.06251 6.41662C4.06561 8.98496 5.08725 11.4472 6.90333 13.2633C8.71942 15.0794 11.1817 16.101 13.75 16.1041C14.3973 16.1059 15.0257 15.8862 15.5308 15.4814C16.0359 15.0766 16.3873 14.5112 16.5266 13.8791ZM11.3774 7.15647C11.7607 7.27731 12.1093 7.48882 12.3936 7.77306C12.6778 8.0573 12.8893 8.40589 13.0102 8.78928C13.07 8.97949 13.1889 9.14568 13.3496 9.2637C13.5103 9.38171 13.7045 9.44541 13.9039 9.44553C13.9995 9.44541 14.0946 9.43093 14.1859 9.40256C14.4222 9.32781 14.6192 9.16259 14.734 8.943C14.8488 8.72341 14.8719 8.46731 14.7984 8.23068C14.587 7.55941 14.2168 6.94906 13.7191 6.45141C13.2215 5.95376 12.6111 5.58352 11.9399 5.37209C11.8217 5.33245 11.6969 5.31676 11.5726 5.32593C11.4483 5.33511 11.3271 5.36897 11.2161 5.42553C11.105 5.48209 11.0064 5.56023 10.9259 5.65536C10.8454 5.75049 10.7847 5.86072 10.7473 5.97959C10.7099 6.09846 10.6966 6.22359 10.7081 6.34767C10.7197 6.47175 10.7558 6.59228 10.8145 6.70222C10.8732 6.81216 10.9531 6.90931 11.0498 6.98797C11.1464 7.06664 11.2578 7.12525 11.3774 7.16037V7.15647Z" fill="white"/>
</svg>
